<svg xmlns="http://www.w3.org/2000/svg" width="23.898" height="21.269" viewBox="0 0 23.898 21.269"><g transform="translate(0 -2.641)"><path d="M0,2.641v16.43H12.826V17.079H1.992V4.633H21.907V8.491H23.9V2.641Z" fill="#fff"/><path d="M36.938,11.5V8.641H31.959v1.525h3.454V11.5Z" transform="translate(-16.047 -3.013)" fill="#fff"/><path d="M7.525,10.166h3.454V8.641H6V11.5H7.525Z" transform="translate(-3.013 -3.013)" fill="#fff"/><path d="M11.021,26.8V25.271H7.567V23.933H6.042V26.8h4.979Z" transform="translate(-3.034 -10.691)" fill="#fff"/><path d="M33.512,17.391a4.749,4.749,0,0,0-2.342,8.881v5.045l2.345-2.427,2.339,2.427V26.272a4.749,4.749,0,0,0-2.342-8.881Zm0,7.1a2.344,2.344,0,1,1,2.344-2.344A2.344,2.344,0,0,1,33.511,24.486Z" transform="translate(-14.441 -7.406)" fill="#fff"/></g></svg>