<svg xmlns="http://www.w3.org/2000/svg" width="25.484" height="25.44" viewBox="0 0 25.484 25.44"><path d="M18.083,18V33.9h15.9V18ZM31.863,31.78H20.2V20.119h11.66Z" transform="translate(-8.499 -8.459)" fill="#fff"/><path d="M27.813,30.537H31.2l1.02,3h1.317l-3.257-9.546H28.79L25.546,33.54h1.275ZM29,26.813c.184-.581.34-1.161.481-1.728h.029c.142.552.284,1.119.5,1.742l.934,2.748H28.068Z" transform="translate(-12.006 -11.277)" fill="#fff"/><path d="M2.12,2.12h9.54V7.942h2.12V0H0V13.78H7.95V11.66H2.12Z" fill="#fff"/><path d="M13.32,7.814V6.657H10.247L9.888,5.5l-1.105.343.253.816H5.67V7.814H7.408a6.527,6.527,0,0,0,1.314,3.444,7.644,7.644,0,0,1-3.052,1.29l.508.9a6.3,6.3,0,0,0,3.378-1.34,5.983,5.983,0,0,0,1.6.922V11.74a6.2,6.2,0,0,1-.765-.482A6.527,6.527,0,0,0,11.7,7.814H13.32ZM9.555,10.485A4.177,4.177,0,0,1,8.506,7.814h2.1A4.181,4.181,0,0,1,9.555,10.485Z" transform="translate(-2.665 -2.584)" fill="#fff"/></svg>