<svg width="20" height="20" viewBox="0 0 20 20" fill="none" xmlns="http://www.w3.org/2000/svg">
<path d="M9.18506 1.66567C9.44238 1.14777 10.1812 1.14777 10.4385 1.66567L12.54 5.89535C12.6419 6.10044 12.8377 6.2427 13.0643 6.27624L17.7363 6.96787C18.3084 7.05256 18.5367 7.75519 18.1237 8.15996L14.7504 11.4657C14.5869 11.626 14.5121 11.8561 14.5502 12.082L15.3362 16.7391C15.4324 17.3093 14.8347 17.7436 14.3221 17.4758L10.1358 15.2892C9.93279 15.1832 9.69077 15.1832 9.48778 15.2892L5.30146 17.4758C4.78887 17.7436 4.19117 17.3093 4.28741 16.7391L5.07338 12.082C5.11149 11.8561 5.0367 11.626 4.87314 11.4657L1.49988 8.15996C1.08684 7.75519 1.31514 7.05256 1.88721 6.96787L6.55929 6.27624C6.78583 6.2427 6.98163 6.10044 7.08353 5.89536L9.18506 1.66567Z" fill="#FEA500"/>
</svg>
