<svg version="1.1" preserveAspectRatio="none" xmlns="http://www.w3.org/2000/svg" xmlns:xlink="http://www.w3.org/1999/xlink" x="0px" y="0px"
	 viewBox="0 0 8.9 513.4" style="enable-background:new 0 0 8.9 513.4;" xml:space="preserve">
<style type="text/css">
	.st0{fill-rule:evenodd;clip-rule:evenodd;fill:#CE6059;stroke:#CE6059;stroke-width:0.4;}
</style>
<g>
	<g transform="translate(-108.000000, -1964.000000)">
		<path class="st0" d="M113,1964.2c-0.1,8.1-0.1,16.3-0.2,24.4c-0.2,22.6-0.4,45.2-0.5,67.8c0,12.9,0.1,26,0.4,38.8
			c0.7,26.1,1.5,52.2,1.7,78.5c0.3,25.3,0.2,50.5-0.4,75.6c-0.6,23-1.3,46-1.9,68.9c-0.5,16.5-0.7,33.1-0.4,49.7
			c0.2,11.4,0.4,22.9,0.6,34.3c0.3,16.9,0.7,33.7,1,50.5c0.2,8.1,0.4,16.2,0.5,24.3c-0.8,0-1.6,0-2.4,0c0-0.4,0-0.8,0-1.2
			c-0.5-28-0.9-56-1.5-84c-0.6-32.4-0.5-64.5,0.8-96.5c0.9-22.4,1.6-45,1.9-67.8c0.5-33.6,0.1-67-1-100.1c-0.9-28.5-1.5-57-1.2-85.8
			c0.2-25.9,0.3-51.7,0.5-77.6C111.6,1964.2,112.3,1964.2,113,1964.2z"/>
	</g>
</g>
</svg>
